<svg xmlns="http://www.w3.org/2000/svg" width="279.4mm" height="215.9mm" viewBox="0 0 279.4 215.9" font-family="sans-serif">
<rect width="279.4" height="215.9" fill="#ffffff"/>
<text x="10.0" y="15.0" font-size="5" font-weight="bold" fill="#000">Hasukey both · RIGHT half — Cirque TM035035 pod</text>
<text x="10.0" y="21.5" font-size="3.4" fill="#c00" font-weight="bold">PRINT AT 100% / "Actual size". Turn OFF "Fit to page" and "Shrink oversized pages".</text>
<text x="10.0" y="27.0" font-size="3.2" fill="#444">1u = 19.05 mm · keycap outline = 18 mm · verify with the ruler before trusting this sheet.</text>
<rect x="10.0" y="199.9" width="100" height="4" fill="none" stroke="#000" stroke-width="0.35"/>
<line x1="10.0" y1="199.9" x2="10.0" y2="203.9" stroke="#000" stroke-width="0.35"/>
<line x1="20.0" y1="199.9" x2="20.0" y2="202.1" stroke="#000" stroke-width="0.35"/>
<line x1="30.0" y1="199.9" x2="30.0" y2="202.1" stroke="#000" stroke-width="0.35"/>
<line x1="40.0" y1="199.9" x2="40.0" y2="202.1" stroke="#000" stroke-width="0.35"/>
<line x1="50.0" y1="199.9" x2="50.0" y2="202.1" stroke="#000" stroke-width="0.35"/>
<line x1="60.0" y1="199.9" x2="60.0" y2="203.9" stroke="#000" stroke-width="0.35"/>
<line x1="70.0" y1="199.9" x2="70.0" y2="202.1" stroke="#000" stroke-width="0.35"/>
<line x1="80.0" y1="199.9" x2="80.0" y2="202.1" stroke="#000" stroke-width="0.35"/>
<line x1="90.0" y1="199.9" x2="90.0" y2="202.1" stroke="#000" stroke-width="0.35"/>
<line x1="100.0" y1="199.9" x2="100.0" y2="202.1" stroke="#000" stroke-width="0.35"/>
<line x1="110.0" y1="199.9" x2="110.0" y2="203.9" stroke="#000" stroke-width="0.35"/>
<text x="113.0" y="203.9" font-size="3.4" font-weight="bold" fill="#000">&#8592; this bar must measure exactly 100 mm</text>
<g><rect x="80.293" y="36.525" width="18.000" height="18.000" rx="1.2" fill="none" stroke="#000" stroke-width="0.3"/><text x="89.293" y="46.825" font-size="3.6" text-anchor="middle" fill="#666">7</text></g>
<g><rect x="99.343" y="36.525" width="18.000" height="18.000" rx="1.2" fill="none" stroke="#000" stroke-width="0.3"/><text x="108.343" y="46.825" font-size="3.6" text-anchor="middle" fill="#666">8</text></g>
<g><rect x="118.393" y="36.525" width="18.000" height="18.000" rx="1.2" fill="none" stroke="#000" stroke-width="0.3"/><text x="127.393" y="46.825" font-size="3.6" text-anchor="middle" fill="#666">9</text></g>
<g><rect x="137.442" y="36.525" width="18.000" height="18.000" rx="1.2" fill="none" stroke="#000" stroke-width="0.3"/><text x="146.442" y="46.825" font-size="3.6" text-anchor="middle" fill="#666">0</text></g>
<g><rect x="156.493" y="36.525" width="18.000" height="18.000" rx="1.2" fill="none" stroke="#000" stroke-width="0.3"/><text x="165.493" y="46.825" font-size="3.6" text-anchor="middle" fill="#666">-</text></g>
<g><rect x="175.543" y="36.525" width="18.000" height="18.000" rx="1.2" fill="none" stroke="#000" stroke-width="0.3"/><text x="184.543" y="46.825" font-size="3.6" text-anchor="middle" fill="#666">=</text></g>
<g><rect x="194.593" y="36.525" width="27.525" height="18.000" rx="1.2" fill="none" stroke="#000" stroke-width="0.3"/><text x="208.355" y="46.825" font-size="3.6" text-anchor="middle" fill="#666">Backspace</text></g>
<g><rect x="70.768" y="55.575" width="18.000" height="18.000" rx="1.2" fill="none" stroke="#000" stroke-width="0.3"/><text x="79.768" y="65.875" font-size="3.6" text-anchor="middle" fill="#666">Y</text></g>
<g><rect x="89.818" y="55.575" width="18.000" height="18.000" rx="1.2" fill="none" stroke="#000" stroke-width="0.3"/><text x="98.818" y="65.875" font-size="3.6" text-anchor="middle" fill="#666">U</text></g>
<g><rect x="108.868" y="55.575" width="18.000" height="18.000" rx="1.2" fill="none" stroke="#000" stroke-width="0.3"/><text x="117.868" y="65.875" font-size="3.6" text-anchor="middle" fill="#666">I</text></g>
<g><rect x="127.918" y="55.575" width="18.000" height="18.000" rx="1.2" fill="none" stroke="#000" stroke-width="0.3"/><text x="136.918" y="65.875" font-size="3.6" text-anchor="middle" fill="#666">O</text></g>
<g><rect x="146.968" y="55.575" width="18.000" height="18.000" rx="1.2" fill="none" stroke="#000" stroke-width="0.3"/><text x="155.968" y="65.875" font-size="3.6" text-anchor="middle" fill="#666">P</text></g>
<g><rect x="166.017" y="55.575" width="18.000" height="18.000" rx="1.2" fill="none" stroke="#000" stroke-width="0.3"/><text x="175.017" y="65.875" font-size="3.6" text-anchor="middle" fill="#666">[</text></g>
<g><rect x="185.067" y="55.575" width="18.000" height="18.000" rx="1.2" fill="none" stroke="#000" stroke-width="0.3"/><text x="194.067" y="65.875" font-size="3.6" text-anchor="middle" fill="#666">]</text></g>
<g><rect x="204.118" y="55.575" width="18.000" height="18.000" rx="1.2" fill="none" stroke="#000" stroke-width="0.3"/><text x="213.118" y="65.875" font-size="3.6" text-anchor="middle" fill="#666">\</text></g>
<g><rect x="75.530" y="74.625" width="18.000" height="18.000" rx="1.2" fill="none" stroke="#000" stroke-width="0.3"/><text x="84.530" y="84.925" font-size="3.6" text-anchor="middle" fill="#666">H</text></g>
<g><rect x="94.580" y="74.625" width="18.000" height="18.000" rx="1.2" fill="none" stroke="#000" stroke-width="0.3"/><text x="103.580" y="84.925" font-size="3.6" text-anchor="middle" fill="#666">J</text></g>
<g><rect x="113.630" y="74.625" width="18.000" height="18.000" rx="1.2" fill="none" stroke="#000" stroke-width="0.3"/><text x="122.630" y="84.925" font-size="3.6" text-anchor="middle" fill="#666">K</text></g>
<g><rect x="132.680" y="74.625" width="18.000" height="18.000" rx="1.2" fill="none" stroke="#000" stroke-width="0.3"/><text x="141.680" y="84.925" font-size="3.6" text-anchor="middle" fill="#666">L</text></g>
<g><rect x="151.730" y="74.625" width="18.000" height="18.000" rx="1.2" fill="none" stroke="#000" stroke-width="0.3"/><text x="160.730" y="84.925" font-size="3.6" text-anchor="middle" fill="#666">;</text></g>
<g><rect x="170.780" y="74.625" width="18.000" height="18.000" rx="1.2" fill="none" stroke="#000" stroke-width="0.3"/><text x="179.780" y="84.925" font-size="3.6" text-anchor="middle" fill="#666">'</text></g>
<g><rect x="189.830" y="74.625" width="32.288" height="18.000" rx="1.2" fill="none" stroke="#000" stroke-width="0.3"/><text x="205.974" y="84.925" font-size="3.6" text-anchor="middle" fill="#666">Enter</text></g>
<g><rect x="66.005" y="93.675" width="18.000" height="18.000" rx="1.2" fill="none" stroke="#000" stroke-width="0.3"/><text x="75.005" y="103.975" font-size="3.6" text-anchor="middle" fill="#666"></text></g>
<g><rect x="85.055" y="93.675" width="18.000" height="18.000" rx="1.2" fill="none" stroke="#000" stroke-width="0.3"/><text x="94.055" y="103.975" font-size="3.6" text-anchor="middle" fill="#666">N</text></g>
<g><rect x="104.105" y="93.675" width="18.000" height="18.000" rx="1.2" fill="none" stroke="#000" stroke-width="0.3"/><text x="113.105" y="103.975" font-size="3.6" text-anchor="middle" fill="#666">M</text></g>
<g><rect x="123.155" y="93.675" width="18.000" height="18.000" rx="1.2" fill="none" stroke="#000" stroke-width="0.3"/><text x="132.155" y="103.975" font-size="3.6" text-anchor="middle" fill="#666">,</text></g>
<g><rect x="142.205" y="93.675" width="18.000" height="18.000" rx="1.2" fill="none" stroke="#000" stroke-width="0.3"/><text x="151.205" y="103.975" font-size="3.6" text-anchor="middle" fill="#666">.</text></g>
<g><rect x="161.255" y="93.675" width="18.000" height="18.000" rx="1.2" fill="none" stroke="#000" stroke-width="0.3"/><text x="170.255" y="103.975" font-size="3.6" text-anchor="middle" fill="#666">/</text></g>
<g><rect x="180.305" y="93.675" width="18.000" height="18.000" rx="1.2" fill="none" stroke="#000" stroke-width="0.3"/><text x="189.305" y="103.975" font-size="3.6" text-anchor="middle" fill="#666">↑</text></g>
<g><rect x="199.355" y="93.675" width="22.762" height="18.000" rx="1.2" fill="none" stroke="#000" stroke-width="0.3"/><text x="210.736" y="103.975" font-size="3.6" text-anchor="middle" fill="#666">Shift</text></g>
<g><rect x="113.630" y="112.725" width="22.762" height="18.000" rx="1.2" fill="none" stroke="#000" stroke-width="0.3"/><text x="125.011" y="123.025" font-size="3.6" text-anchor="middle" fill="#666">Alt</text></g>
<g><rect x="137.442" y="112.725" width="22.762" height="18.000" rx="1.2" fill="none" stroke="#000" stroke-width="0.3"/><text x="148.824" y="123.025" font-size="3.6" text-anchor="middle" fill="#666">Ctrl</text></g>
<g><rect x="161.255" y="112.725" width="18.000" height="18.000" rx="1.2" fill="none" stroke="#000" stroke-width="0.3"/><text x="170.255" y="123.025" font-size="3.6" text-anchor="middle" fill="#666">←</text></g>
<g><rect x="180.305" y="112.725" width="18.000" height="18.000" rx="1.2" fill="none" stroke="#000" stroke-width="0.3"/><text x="189.305" y="123.025" font-size="3.6" text-anchor="middle" fill="#666">↓</text></g>
<g><rect x="199.355" y="112.725" width="18.000" height="18.000" rx="1.2" fill="none" stroke="#000" stroke-width="0.3"/><text x="208.355" y="123.025" font-size="3.6" text-anchor="middle" fill="#666">→</text></g>
<g transform="rotate(45 75.005 116.963)"><rect x="75.530" y="117.488" width="27.525" height="18.000" rx="1.2" fill="none" stroke="#000" stroke-width="0.3"/><text x="89.293" y="127.788" font-size="3.6" text-anchor="middle" fill="#666">Enter</text></g>
<g transform="rotate(-15 94.055 116.963)"><rect x="89.818" y="117.488" width="18.000" height="18.000" rx="1.2" fill="none" stroke="#000" stroke-width="0.3"/><text x="98.818" y="127.788" font-size="3.6" text-anchor="middle" fill="#666">Bspc</text></g>
<circle cx="35.000" cy="116.010" r="25.000" fill="none" stroke="#c00" stroke-width="0.6"/>
<circle cx="35.000" cy="116.010" r="17.500" fill="none" stroke="#c00" stroke-width="0.4" stroke-dasharray="2 1.5"/>
<line x1="29.000" y1="116.010" x2="41.000" y2="116.010" stroke="#c00" stroke-width="0.3"/>
<line x1="35.000" y1="110.010" x2="35.000" y2="122.010" stroke="#c00" stroke-width="0.3"/>
<text x="35.000" y="89.010" font-size="3.2" text-anchor="middle" fill="#c00" font-weight="bold">ring OD 50 mm</text>
<text x="35.000" y="145.010" font-size="3.2" text-anchor="middle" fill="#c00">sensor 35 mm (dashed)</text>
</svg>